{
  "asset": {
    "version": "2.0",
    "generator": "THREE.GLTFExporter"
  },
  "scenes": [
    {
      "name": "AuxScene",
      "nodes": [
        21
      ]
    }
  ],
  "scene": 0,
  "nodes": [
    {
      "mesh": 0
    },
    {
      "matrix": [
        1,
        0,
        0,
        0,
        0,
        1,
        0,
        0,
        0,
        0,
        0.9999999999999999,
        0,
        0,
        0,
        0,
        1
      ],
      "children": [
        0
      ]
    },
    {
      "children": [
        1
      ]
    },
    {
      "mesh": 1
    },
    {
      "children": [
        3
      ]
    },
    {
      "matrix": [
        1,
        0,
        0,
        0,
        0,
        1,
        0,
        0,
        0,
        0,
        1,
        0,
        0,
        0,
        49.37491452861272,
        1
      ],
      "children": [
        4
      ]
    },
    {
      "mesh": 2
    },
    {
      "children": [
        6
      ]
    },
    {
      "matrix": [
        1,
        0,
        0,
        0,
        0,
        1,
        0,
        0,
        0,
        0,
        1,
        0,
        0,
        0,
        80.54395942136591,
        1
      ],
      "children": [
        7
      ]
    },
    {
      "mesh": 3
    },
    {
      "children": [
        9
      ]
    },
    {
      "matrix": [
        1,
        0,
        0,
        0,
        0,
        1,
        0,
        0,
        0,
        0,
        1,
        0,
        0,
        0,
        -0.023695434879418605,
        1
      ],
      "children": [
        10
      ]
    },
    {
      "mesh": 4
    },
    {
      "children": [
        12
      ]
    },
    {
      "matrix": [
        1,
        0,
        0,
        0,
        0,
        1,
        0,
        0,
        0,
        0,
        1,
        0,
        0,
        0,
        10.575455708504652,
        1
      ],
      "children": [
        13
      ]
    },
    {
      "mesh": 5
    },
    {
      "children": [
        15
      ]
    },
    {
      "matrix": [
        1,
        0,
        0,
        0,
        0,
        1,
        0,
        0,
        0,
        0,
        1,
        0,
        0,
        0,
        10.575455708504652,
        1
      ],
      "children": [
        16
      ]
    },
    {
      "mesh": 6
    },
    {
      "children": [
        18
      ]
    },
    {
      "matrix": [
        1,
        0,
        0,
        0,
        0,
        1,
        0,
        0,
        0,
        0,
        1,
        0,
        0,
        0,
        98.26364503280763,
        1
      ],
      "children": [
        19
      ]
    },
    {
      "matrix": [
        0.02225172813911427,
        0,
        0,
        0,
        0,
        -0.02225172813911427,
        0,
        0,
        0,
        0,
        0.02225172813911427,
        0,
        -3.8347197980344467,
        3.17612963378898,
        0,
        1
      ],
      "extras": {
        "svgImageTarget": {
          "width": 512,
          "height": 424,
          "depth": 1,
          "scissor": {
            "x": 0,
            "y": 0,
            "z": 512,
            "w": 424
          },
          "scissorTest": false,
          "viewport": {
            "x": 0,
            "y": 0,
            "z": 512,
            "w": 424
          },
          "texture": {
            "metadata": {
              "version": 4.5,
              "type": "Texture",
              "generator": "Texture.toJSON"
            },
            "uuid": "BA1756D6-85DA-4213-8DAB-4703EC6C0F66",
            "name": "",
            "mapping": 300,
            "repeat": [
              1,
              1
            ],
            "offset": [
              0,
              0
            ],
            "center": [
              0,
              0
            ],
            "rotation": 0,
            "wrap": [
              1001,
              1001
            ],
            "format": 1023,
            "type": 1009,
            "encoding": 3000,
            "minFilter": 1003,
            "magFilter": 1006,
            "anisotropy": 1,
            "flipY": true,
            "premultiplyAlpha": false,
            "unpackAlignment": 4,
            "image": "FA1B2C81-D660-4178-99B0-85F40909BE08"
          },
          "depthBuffer": false,
          "stencilBuffer": false,
          "depthTexture": null,
          "_listeners": {
            "dispose": [
              null
            ]
          }
        }
      },
      "children": [
        2,
        5,
        8,
        11,
        14,
        17,
        20
      ]
    }
  ],
  "bufferViews": [
    {
      "buffer": 0,
      "byteOffset": 0,
      "byteLength": 38736,
      "target": 34962,
      "byteStride": 12
    },
    {
      "buffer": 0,
      "byteOffset": 38736,
      "byteLength": 25824,
      "target": 34962,
      "byteStride": 8
    },
    {
      "buffer": 0,
      "byteOffset": 64560,
      "byteLength": 38736,
      "target": 34962,
      "byteStride": 12
    },
    {
      "buffer": 0,
      "byteOffset": 103296,
      "byteLength": 17136,
      "target": 34962,
      "byteStride": 12
    },
    {
      "buffer": 0,
      "byteOffset": 120432,
      "byteLength": 11424,
      "target": 34962,
      "byteStride": 8
    },
    {
      "buffer": 0,
      "byteOffset": 131856,
      "byteLength": 17136,
      "target": 34962,
      "byteStride": 12
    },
    {
      "buffer": 0,
      "byteOffset": 148992,
      "byteLength": 17136,
      "target": 34962,
      "byteStride": 12
    },
    {
      "buffer": 0,
      "byteOffset": 166128,
      "byteLength": 11424,
      "target": 34962,
      "byteStride": 8
    },
    {
      "buffer": 0,
      "byteOffset": 177552,
      "byteLength": 17136,
      "target": 34962,
      "byteStride": 12
    },
    {
      "buffer": 0,
      "byteOffset": 194688,
      "byteLength": 25776,
      "target": 34962,
      "byteStride": 12
    },
    {
      "buffer": 0,
      "byteOffset": 220464,
      "byteLength": 17184,
      "target": 34962,
      "byteStride": 8
    },
    {
      "buffer": 0,
      "byteOffset": 237648,
      "byteLength": 25776,
      "target": 34962,
      "byteStride": 12
    },
    {
      "buffer": 0,
      "byteOffset": 263424,
      "byteLength": 47376,
      "target": 34962,
      "byteStride": 12
    },
    {
      "buffer": 0,
      "byteOffset": 310800,
      "byteLength": 31584,
      "target": 34962,
      "byteStride": 8
    },
    {
      "buffer": 0,
      "byteOffset": 342384,
      "byteLength": 47376,
      "target": 34962,
      "byteStride": 12
    },
    {
      "buffer": 0,
      "byteOffset": 389760,
      "byteLength": 47376,
      "target": 34962,
      "byteStride": 12
    },
    {
      "buffer": 0,
      "byteOffset": 437136,
      "byteLength": 31584,
      "target": 34962,
      "byteStride": 8
    },
    {
      "buffer": 0,
      "byteOffset": 468720,
      "byteLength": 47376,
      "target": 34962,
      "byteStride": 12
    },
    {
      "buffer": 0,
      "byteOffset": 516096,
      "byteLength": 17136,
      "target": 34962,
      "byteStride": 12
    },
    {
      "buffer": 0,
      "byteOffset": 533232,
      "byteLength": 11424,
      "target": 34962,
      "byteStride": 8
    },
    {
      "buffer": 0,
      "byteOffset": 544656,
      "byteLength": 17136,
      "target": 34962,
      "byteStride": 12
    }
  ],
  "buffers": [
    {
      "byteLength": 561792,
      "uri": "data:application/octet-stream;base64,"
    }
  ],
  "accessors": [
    {
      "bufferView": 0,
      "componentType": 5126,
      "count": 3228,
      "max": [
        309.072998046875,
        285.1659851074219,
        49.444358825683594
      ],
      "min": [
        0.30615198612213135,
        40.187828063964844,
        0
      ],
      "type": "VEC3"
    },
    {
      "bufferView": 1,
      "componentType": 5126,
      "count": 3228,
      "max": [
        0.8962828516960144,
        0.8587377071380615
      ],
      "min": [
        0.0014490964822471142,
        0.0017503118142485619
      ],
      "type": "VEC2"
    },
    {
      "bufferView": 2,
      "componentType": 5126,
      "count": 3228,
      "max": [
        0.9999940991401672,
        0.9993430972099304,
        1
      ],
      "min": [
        -0.9999998211860657,
        -0.9996423721313477,
        -1
      ],
      "type": "VEC3"
    },
    {
      "bufferView": 3,
      "componentType": 5126,
      "count": 1428,
      "max": [
        237.531005859375,
        262.1883544921875,
        31.20849609375
      ],
      "min": [
        30.355600357055664,
        125.36165618896484,
        0
      ],
      "type": "VEC3"
    },
    {
      "bufferView": 4,
      "componentType": 5126,
      "count": 1428,
      "max": [
        0.6889477968215942,
        0.560780942440033
      ],
      "min": [
        0.08853506296873093,
        0.08213111013174057
      ],
      "type": "VEC2"
    },
    {
      "bufferView": 5,
      "componentType": 5126,
      "count": 1428,
      "max": [
        0.9998748898506165,
        0.9990930557250977,
        1
      ],
      "min": [
        -0.9998748898506165,
        -0.9990930557250977,
        -1
      ],
      "type": "VEC3"
    },
    {
      "bufferView": 6,
      "componentType": 5126,
      "count": 1428,
      "max": [
        184.94187927246094,
        243.5819854736328,
        17.72949981689453
      ],
      "min": [
        77.68533325195312,
        152.94366455078125,
        0
      ],
      "type": "VEC3"
    },
    {
      "bufferView": 7,
      "componentType": 5126,
      "count": 1428,
      "max": [
        0.5365398526191711,
        0.4642930328845978
      ],
      "min": [
        0.22570082545280457,
        0.14722028374671936
      ],
      "type": "VEC2"
    },
    {
      "bufferView": 8,
      "componentType": 5126,
      "count": 1428,
      "max": [
        0.9999774694442749,
        0.9990586638450623,
        1
      ],
      "min": [
        -0.9999773502349854,
        -0.99905925989151,
        -1
      ],
      "type": "VEC3"
    },
    {
      "bufferView": 9,
      "componentType": 5126,
      "count": 2148,
      "max": [
        299.6210021972656,
        109.96399688720703,
        10.64880657196045
      ],
      "min": [
        240.38800048828125,
        50.72359848022461,
        0
      ],
      "type": "VEC3"
    },
    {
      "bufferView": 10,
      "componentType": 5126,
      "count": 2148,
      "max": [
        0.868890106678009,
        0.8218812942504883
      ],
      "min": [
        0.6972275972366333,
        0.6146453619003296
      ],
      "type": "VEC2"
    },
    {
      "bufferView": 11,
      "componentType": 5126,
      "count": 2148,
      "max": [
        0.9980398416519165,
        0.9980387091636658,
        1
      ],
      "min": [
        -0.9980388879776001,
        -0.998038113117218,
        -1
      ],
      "type": "VEC3"
    },
    {
      "bufferView": 12,
      "componentType": 5126,
      "count": 3948,
      "max": [
        344.3609924316406,
        131.39199829101562,
        22.3153133392334
      ],
      "min": [
        225.26499938964844,
        0.30664101243019104,
        0
      ],
      "type": "VEC3"
    },
    {
      "bufferView": 13,
      "componentType": 5126,
      "count": 3948,
      "max": [
        0.9985505938529968,
        0.9982509016990662
      ],
      "min": [
        0.6533998250961304,
        0.5396854877471924
      ],
      "type": "VEC2"
    },
    {
      "bufferView": 14,
      "componentType": 5126,
      "count": 3948,
      "max": [
        1,
        1,
        1
      ],
      "min": [
        -0.9999498128890991,
        -1,
        -1
      ],
      "type": "VEC3"
    },
    {
      "bufferView": 15,
      "componentType": 5126,
      "count": 3948,
      "max": [
        344.3609924316406,
        131.39199829101562,
        22.3153133392334
      ],
      "min": [
        225.26499938964844,
        0.30664101243019104,
        0
      ],
      "type": "VEC3"
    },
    {
      "bufferView": 16,
      "componentType": 5126,
      "count": 3948,
      "max": [
        0.9985505938529968,
        0.9982509016990662
      ],
      "min": [
        0.6533998250961304,
        0.5396854877471924
      ],
      "type": "VEC2"
    },
    {
      "bufferView": 17,
      "componentType": 5126,
      "count": 3948,
      "max": [
        1,
        1,
        1
      ],
      "min": [
        -0.9999498128890991,
        -1,
        -1
      ],
      "type": "VEC3"
    },
    {
      "bufferView": 18,
      "componentType": 5126,
      "count": 1428,
      "max": [
        166.0330047607422,
        201.9770050048828,
        4.410536289215088
      ],
      "min": [
        142.08700561523438,
        178.0279998779297,
        0
      ],
      "type": "VEC3"
    },
    {
      "bufferView": 19,
      "componentType": 5126,
      "count": 1428,
      "max": [
        0.48174023628234863,
        0.3765425384044647
      ],
      "min": [
        0.4123426079750061,
        0.2927636504173279
      ],
      "type": "VEC2"
    },
    {
      "bufferView": 20,
      "componentType": 5126,
      "count": 1428,
      "max": [
        0.9977450370788574,
        0.9977437853813171,
        1
      ],
      "min": [
        -0.99774569272995,
        -0.9977437853813171,
        -1
      ],
      "type": "VEC3"
    }
  ],
  "materials": [
    {
      "pbrMetallicRoughness": {
        "baseColorFactor": [
          0.8901960784313725,
          0.3254901960784314,
          0.23137254901960785,
          1
        ],
        "metallicFactor": 0,
        "roughnessFactor": 1
      }
    },
    {
      "pbrMetallicRoughness": {
        "metallicFactor": 0,
        "roughnessFactor": 1
      }
    },
    {
      "pbrMetallicRoughness": {
        "baseColorFactor": [
          0.2,
          0.2,
          0.2,
          1
        ],
        "metallicFactor": 0,
        "roughnessFactor": 1
      }
    },
    {
      "pbrMetallicRoughness": {
        "baseColorFactor": [
          1,
          0.6352941176470588,
          0.1607843137254902,
          1
        ],
        "metallicFactor": 0,
        "roughnessFactor": 1
      }
    },
    {
      "pbrMetallicRoughness": {
        "baseColorFactor": [
          1,
          0.6352941176470588,
          0.1607843137254902,
          1
        ],
        "metallicFactor": 0,
        "roughnessFactor": 1
      }
    },
    {
      "pbrMetallicRoughness": {
        "baseColorFactor": [
          1,
          0.6352941176470588,
          0.1607843137254902,
          1
        ],
        "metallicFactor": 0,
        "roughnessFactor": 1
      }
    },
    {
      "pbrMetallicRoughness": {
        "metallicFactor": 0,
        "roughnessFactor": 1
      }
    }
  ],
  "meshes": [
    {
      "primitives": [
        {
          "mode": 4,
          "attributes": {
            "POSITION": 0,
            "TEXCOORD_0": 1,
            "NORMAL": 2
          },
          "extras": {
            "isUVNormalized": true
          },
          "material": 0
        }
      ]
    },
    {
      "primitives": [
        {
          "mode": 4,
          "attributes": {
            "POSITION": 3,
            "TEXCOORD_0": 4,
            "NORMAL": 5
          },
          "extras": {
            "isUVNormalized": true
          },
          "material": 1
        }
      ]
    },
    {
      "primitives": [
        {
          "mode": 4,
          "attributes": {
            "POSITION": 6,
            "TEXCOORD_0": 7,
            "NORMAL": 8
          },
          "extras": {
            "isUVNormalized": true
          },
          "material": 2
        }
      ]
    },
    {
      "primitives": [
        {
          "mode": 4,
          "attributes": {
            "POSITION": 9,
            "TEXCOORD_0": 10,
            "NORMAL": 11
          },
          "extras": {
            "isUVNormalized": true
          },
          "material": 3
        }
      ]
    },
    {
      "primitives": [
        {
          "mode": 4,
          "attributes": {
            "POSITION": 12,
            "TEXCOORD_0": 13,
            "NORMAL": 14
          },
          "extras": {
            "isUVNormalized": true
          },
          "material": 4
        }
      ]
    },
    {
      "primitives": [
        {
          "mode": 4,
          "attributes": {
            "POSITION": 15,
            "TEXCOORD_0": 16,
            "NORMAL": 17
          },
          "extras": {
            "isUVNormalized": true
          },
          "material": 5
        }
      ]
    },
    {
      "primitives": [
        {
          "mode": 4,
          "attributes": {
            "POSITION": 18,
            "TEXCOORD_0": 19,
            "NORMAL": 20
          },
          "extras": {
            "isUVNormalized": true
          },
          "material": 6
        }
      ]
    }
  ]
}